{
	"asset":{
		"generator":"Khronos glTF Blender I/O v4.0.44",
		"version":"2.0"
	},
	"scene":0,
	"scenes":[
		{
			"name":"Scene",
			"nodes":[
				0,
				1,
				2
			]
		}
	],
	"nodes":[
		{
			"mesh":0,
			"name":"Sphere",
			"scale":[
				0.5621095895767212,
				1,
				0.6073221564292908
			],
			"translation":[
				0,
				3.629135847091675,
				0
			]
		},
		{
			"mesh":1,
			"name":"Torus",
			"rotation":[
				0.70710688829422,
				0,
				0,
				0.7071066498756409
			],
			"scale":[
				2.504011869430542,
				2.504011869430542,
				2.504011869430542
			]
		},
		{
			"mesh":2,
			"name":"dobj.000",
			"scale":[
				0.8317546844482422,
				0.8317546844482422,
				0.8317546844482422
			],
			"translation":[
				0,
				3.5077152252197266,
				0
			]
		}
	],
	"materials":[
		{
			"doubleSided":true,
			"name":"Ring",
			"pbrMetallicRoughness":{}
		},
		{
			"doubleSided":true,
			"name":"Diamond2.001",
			"pbrMetallicRoughness":{}
		}
	],
	"meshes":[
		{
			"name":"Sphere",
			"primitives":[
				{
					"attributes":{
						"POSITION":0,
						"NORMAL":1
					},
					"indices":2,
					"material":0
				}
			]
		},
		{
			"name":"Torus",
			"primitives":[
				{
					"attributes":{
						"POSITION":3,
						"NORMAL":4
					},
					"indices":5,
					"material":0
				}
			]
		},
		{
			"name":"dmesh.002",
			"primitives":[
				{
					"attributes":{
						"POSITION":6,
						"NORMAL":7
					},
					"indices":8,
					"material":1
				}
			]
		}
	],
	"accessors":[
		{
			"bufferView":0,
			"componentType":5126,
			"count":337,
			"max":[
				1.2265756130218506,
				-0.23064084351062775,
				1.149198293685913
			],
			"min":[
				-1.251950979232788,
				-1.0008602142333984,
				-1.1638085842132568
			],
			"type":"VEC3"
		},
		{
			"bufferView":1,
			"componentType":5126,
			"count":337,
			"type":"VEC3"
		},
		{
			"bufferView":2,
			"componentType":5123,
			"count":1776,
			"type":"SCALAR"
		},
		{
			"bufferView":3,
			"componentType":5126,
			"count":576,
			"max":[
				1.1025522947311401,
				0.14471079409122467,
				1.1025522947311401
			],
			"min":[
				-1.1025522947311401,
				-0.1447106897830963,
				-1.2019864320755005
			],
			"type":"VEC3"
		},
		{
			"bufferView":4,
			"componentType":5126,
			"count":576,
			"type":"VEC3"
		},
		{
			"bufferView":5,
			"componentType":5123,
			"count":3456,
			"type":"SCALAR"
		},
		{
			"bufferView":6,
			"componentType":5126,
			"count":560,
			"max":[
				1,
				0.3580000102519989,
				1
			],
			"min":[
				-1,
				-0.5591169595718384,
				-1
			],
			"type":"VEC3"
		},
		{
			"bufferView":7,
			"componentType":5126,
			"count":560,
			"type":"VEC3"
		},
		{
			"bufferView":8,
			"componentType":5123,
			"count":948,
			"type":"SCALAR"
		}
	],
	"bufferViews":[
		{
			"buffer":0,
			"byteLength":4044,
			"byteOffset":0,
			"target":34962
		},
		{
			"buffer":0,
			"byteLength":4044,
			"byteOffset":4044,
			"target":34962
		},
		{
			"buffer":0,
			"byteLength":3552,
			"byteOffset":8088,
			"target":34963
		},
		{
			"buffer":0,
			"byteLength":6912,
			"byteOffset":11640,
			"target":34962
		},
		{
			"buffer":0,
			"byteLength":6912,
			"byteOffset":18552,
			"target":34962
		},
		{
			"buffer":0,
			"byteLength":6912,
			"byteOffset":25464,
			"target":34963
		},
		{
			"buffer":0,
			"byteLength":6720,
			"byteOffset":32376,
			"target":34962
		},
		{
			"buffer":0,
			"byteLength":6720,
			"byteOffset":39096,
			"target":34962
		},
		{
			"buffer":0,
			"byteLength":1896,
			"byteOffset":45816,
			"target":34963
		}
	],
	"buffers":[
		{
			"byteLength":47712,
			"uri":"sampleRing.bin"
		}
	]
}
